<?xml version="1.0" encoding="UTF-8"?>
<svg width="2666.7" height="2666.7" version="1.1" viewBox="0 0 2666.7 2666.7" xml:space="preserve" xmlns="http://www.w3.org/2000/svg" xmlns:cc="http://creativecommons.org/ns#" xmlns:dc="http://purl.org/dc/elements/1.1/" xmlns:rdf="http://www.w3.org/1999/02/22-rdf-syntax-ns#"><metadata><rdf:RDF><cc:Work rdf:about=""><dc:format>image/svg+xml</dc:format><dc:type rdf:resource="http://purl.org/dc/dcmitype/StillImage"/><dc:title/></cc:Work></rdf:RDF></metadata><g transform="matrix(1.3333 0 0 -1.3333 0 2666.7)"><g transform="scale(.1)" fill="none"><path d="m2e4 0h-2e4v2e4h2e4v-2e4" fill="none"/><g><path d="m4371.5 6729.6v6506.3l5628.5-3253.1v-6500.6l-5628.5 3247.4" fill="#f5fffa" style="mix-blend-mode:normal;paint-order:normal"/><path d="m15628 6729.6v6506.3l-5628.5-3253.1v-6500.6l5628.5 3247.4" fill="#66cdaa" style="paint-order:stroke markers fill"/><path d="m4371.5 13236 5628.5 3281.9 5628.5-3281.9-5628.5-3253.1-5628.5 3253.1" fill="#7fffd4" style="paint-order:normal"/></g><text fill="none" font-family="'Fira Code'" font-size="300px" letter-spacing="0px" word-spacing="0px" style="line-height:1.25;shape-inside:url(#rect4841);white-space:pre" xml:space="preserve"/><g transform="matrix(1 0 0 -1 5220.8 -1117.2)" fill="none" stroke="#000" stroke-width="150" style="inline-size:0;white-space:pre" aria-label="F"><path d="m8875.8-11492-1694.2 999.29 1.68 1294.3 1485.7-881.5 2.02 373.52-1487.2 883.92 2.14 1646.1-475.85 284.93v-3705.3l2221-1307.7z" fill="#000" stroke="none"/></g></g><g transform="matrix(1 0 0 -1 -370.86 -244.1)" style="inline-size:0;white-space:pre" aria-label="[_]"><path d="m967.4-1325.4-78.009-45.32-2.113 342.19 78.427 45.978 0.104-21.108-58.759-34.42 1.758-299.66 58.485 34zm34.124 388.74 168.01 98.553 0.04-21.768-167.95-98.464zm203.98 94.687 78.43 45.976v-345.52l-78.01-45.32-0.02 21.79 58.48 33.99-0.09 302.1-58.76-34.426z" stroke-width=".75"/></g></g></svg>
