<svg width="125" height="29" viewBox="0 0 125 29" fill="none" xmlns="http://www.w3.org/2000/svg">
  <path fill-rule="evenodd" clip-rule="evenodd" d="M5.20344 19.1577L19.4179 0L23.8944 4.57688L9.67996 23.7346L5.20344 19.1577ZM10.8463 24.9298L25.0607 5.77211L28.6419 9.43361C29.1364 9.93916 29.2645 10.7166 28.928 11.17L15.932 28.6857C15.5955 29.1391 14.9219 29.0969 14.4275 28.5913L10.8463 24.9298ZM0.212085 12.4878C-0.147778 12.9728 -0.0386632 13.7758 0.455799 14.2814L4.03701 17.9429L13.9541 4.57702L9.47756 0.000137803L0.212085 12.4878ZM48.028 24.0103H48.0277L43.4775 16.9124L43.4777 16.9122L48.028 24.0103ZM48.1363 5.22255H51.9279L51.928 5.22249H48.136L40.8504 15.7242V15.7247L48.1363 5.22255ZM40.85 5.22255H37.0855V24.0103H37.0852V5.22249H40.85V5.22255ZM47.9862 4.94762L41.1322 14.8271V4.94762H36.803V24.2852H41.1322V20.4337L43.4566 17.3987L47.8712 24.2852H52.9354L46.1182 14.0654L52.46 4.94762H47.9862ZM69.344 13.904V15.3289C69.344 18.4778 68.7301 20.7647 67.5022 22.1896C67.3957 22.315 67.2835 22.4349 67.1655 22.5493C67.2835 22.4349 67.3958 22.315 67.5023 22.1896C68.7302 20.7646 69.3441 18.4777 69.3441 15.3288V13.9039C69.3441 11.0013 68.7212 8.82873 67.4753 7.38622C66.2293 5.94371 64.2792 5.22246 61.6248 5.22246C61.4072 5.22246 61.1945 5.22734 60.9865 5.23704C61.1945 5.22735 61.4071 5.22251 61.6246 5.22251C64.279 5.22251 66.2292 5.94377 67.4751 7.38628C68.721 8.82879 69.344 11.0014 69.344 13.904ZM62.2802 21.0214C62.0814 21.0437 61.8719 21.0549 61.6519 21.0549C60.9657 21.0549 60.3698 20.9405 59.8642 20.7119C59.3767 20.4656 59.0065 20.1753 58.7537 19.8411C58.1037 19.0495 57.7787 17.519 57.7787 15.2497V14.2733C57.7787 12.5318 57.9863 11.186 58.4016 10.2361C58.4881 10.0374 58.5918 9.85574 58.7126 9.69107C58.5917 9.85575 58.488 10.0374 58.4015 10.2361C57.9862 11.1861 57.7785 12.5318 57.7785 14.2734V15.2497C57.7785 17.519 58.1035 19.0495 58.7536 19.8411C59.0064 20.1754 59.3765 20.4656 59.8641 20.7119C60.3697 20.9406 60.9656 21.055 61.6517 21.055C61.8718 21.055 62.0813 21.0438 62.2802 21.0214ZM55.5827 22.3632L55.584 22.3647C56.867 23.8759 58.9139 24.6018 61.6519 24.6018C64.3894 24.6018 66.436 23.8762 67.7191 22.3655C69.0101 20.8668 69.6263 18.5008 69.6263 15.3288V13.9039C69.6263 10.9699 68.9977 8.72192 67.6911 7.20925C66.3737 5.68393 64.3299 4.94759 61.6248 4.94759C58.9384 4.94759 56.9121 5.6748 55.6124 7.1831L55.6111 7.18464C54.3412 8.68032 53.7316 10.9283 53.7316 13.8775V15.2497C53.7316 18.4723 54.329 20.8642 55.5827 22.3632ZM58.9809 19.678C59.2009 19.9689 59.5316 20.2334 59.9886 20.465C60.4483 20.6718 61.0001 20.78 61.6519 20.78C62.326 20.78 62.8775 20.6704 63.3171 20.4642C63.775 20.2494 64.1169 19.9917 64.3557 19.6971C64.5957 19.4009 64.7892 18.9991 64.9269 18.4794L64.9278 18.476L64.9288 18.4726C65.1718 17.644 65.2971 16.5723 65.2971 15.2497V14.2733C65.2971 12.6033 65.0822 11.2986 64.6693 10.3431C64.44 9.81661 64.0849 9.42975 63.6015 9.17073C63.1133 8.90915 62.4777 8.76936 61.679 8.76936C60.8707 8.76936 60.2281 8.90931 59.7353 9.17119C59.2473 9.4305 58.8904 9.81747 58.6614 10.3434L58.6612 10.3438C58.2676 11.244 58.0608 12.5468 58.0608 14.2733V15.2497C58.0608 16.3732 58.1414 17.3031 58.2987 18.0438C58.4566 18.7875 58.6878 19.3208 58.9741 19.6694L58.9776 19.6736L58.9809 19.678ZM88.5023 5.22251H84.7376V17.519L84.7374 17.5187V5.22246H88.5023V5.22251ZM83.6269 22.1104L76.9641 11.9516V11.9513L83.6271 22.1104C83.7865 22.3929 83.955 22.647 84.1326 22.8727C83.9549 22.647 83.7863 22.3929 83.6269 22.1104ZM73.1992 5.22251H76.8285L76.8284 5.22246H73.199V24.0103H73.1992V5.22251ZM88.7844 22.1104V4.94759H84.4552V16.5627L76.9846 4.94759H72.9168V24.2851H77.246V12.8919L83.3842 22.2509C84.2093 23.7082 85.3079 24.4962 86.6875 24.4962C87.2678 24.4962 87.7664 24.2508 88.1735 23.7948L88.1754 23.7927L88.1773 23.7904C88.5832 23.3159 88.7844 22.7513 88.7844 22.1104ZM98.2218 5.22251H106.781V5.22246H98.2217C96.7049 5.22246 95.6305 5.51272 94.9985 6.09324C94.3846 6.67376 94.0776 7.65889 94.0776 9.04863V24.0103L94.0777 24.0103V9.04869C94.0777 7.65895 94.3847 6.67382 94.9986 6.0933C95.6306 5.51277 96.705 5.22251 98.2218 5.22251ZM99.9822 8.76936H107.063V4.94759H98.2217C96.6822 4.94759 95.5166 5.23954 94.8049 5.89325L94.8035 5.89461L94.802 5.896C94.1063 6.55381 93.7955 7.63167 93.7955 9.04863V24.2852H98.1246V16.6592H104.901L105.218 12.8374H98.1246V10.4999C98.1246 9.78657 98.275 9.36137 98.4996 9.14021C98.745 8.91663 99.2118 8.76936 99.9822 8.76936ZM124.539 5.22251H120.45L116.902 12.7957L116.901 12.7955L120.45 5.22246H124.54L124.539 5.22251ZM115.006 24.0103V16.3052L115.005 16.3052V24.0103L115.006 24.0103ZM109.209 5.22251H113.299L113.299 5.22246H109.209L109.209 5.22251ZM119.025 16.3712L125 4.94759H120.268L116.899 12.1378L113.479 4.94759H108.749L114.723 16.3712V24.2852H119.025V16.3712Z" fill="url(#paint0_linear)"/>
  <defs>
    <linearGradient id="paint0_linear" x1="0" y1="14.5" x2="125" y2="14.5" gradientUnits="userSpaceOnUse">
      <stop stop-color="#3494E6"/>
      <stop offset="1" stop-color="#EC6EAD"/>
    </linearGradient>
  </defs>
</svg>
