<svg xmlns="http://www.w3.org/2000/svg" width="50.828" height="50.828"><defs><style>.cls-1{fill:#b40023}</style></defs><g id="RMS_Logo" transform="translate(-235.667 -220.01)"><g id="Group_4110" data-name="Group 4110" transform="translate(235.667 220.01)"><path id="Path_667" d="M240.788 316.307v-.038c0-1.257-.876-1.9-2.305-1.9h-2.815v3.829h2.873c1.427-.005 2.247-.767 2.247-1.891z" class="cls-1" data-name="Path 667" transform="translate(-235.667 -281.972)"/><path id="Path_668" d="M235.667 220.01v29.744h3.063a5.314 5.314 0 013.886 1.353 4.185 4.185 0 011.143 3.048v.038a4.141 4.141 0 01-2.857 4.134l3.258 4.762h-3.43l-2.857-4.267h-2.206v12.017H286.5V220.01zm22.5 47.326h-13.345v-2.542h13.346zm.033-4.237h-2.917v-8.713l-3.756 5.7h-.076l-3.718-5.644v8.658h-2.879v-13.347h3.165l3.508 5.643 3.508-5.643h3.165zm11.014-3.946c0 2.65-2.021 4.137-4.9 4.137a8.493 8.493 0 01-5.663-2.136l1.736-2.078a6.124 6.124 0 003.985 1.621c1.2 0 1.925-.477 1.925-1.259v-.038c0-.744-.457-1.125-2.688-1.7-2.688-.686-4.422-1.43-4.422-4.08v-.038c0-2.422 1.944-4.024 4.67-4.024a7.725 7.725 0 014.958 1.7l-1.525 2.211a6.266 6.266 0 00-3.47-1.315c-1.125 0-1.716.515-1.716 1.163v.038c0 .877.572 1.163 2.879 1.754 2.707.705 4.233 1.678 4.233 4z" class="cls-1" data-name="Path 668" transform="translate(-235.667 -220.01)"/></g><path id="Path_669" d="M258.168 321.323v2.542h-13.346v-2.542zm.033-15.041h-3.165l-3.508 5.643-3.508-5.643h-3.165v13.346h2.879v-8.657l3.718 5.644h.076l3.756-5.7v8.713h2.916zm11.014 9.362c0-2.326-1.525-3.3-4.233-4-2.307-.591-2.879-.877-2.879-1.754v-.038c0-.648.591-1.163 1.716-1.163A6.266 6.266 0 01267.29 310l1.525-2.211a7.725 7.725 0 00-4.958-1.7c-2.726 0-4.67 1.6-4.67 4.024v.038c0 2.65 1.734 3.394 4.422 4.08 2.231.572 2.688.953 2.688 1.7v.038c0 .782-.724 1.259-1.925 1.259a6.124 6.124 0 01-3.985-1.621l-1.736 2.078a8.494 8.494 0 005.663 2.136c2.879 0 4.9-1.488 4.9-4.137zm-25.457-4.922v-.038a4.185 4.185 0 00-1.143-3.047 5.314 5.314 0 00-3.886-1.353h-3.063v2.648h2.815c1.429 0 2.305.648 2.305 1.9v.038c0 1.124-.819 1.886-2.248 1.886h-2.873v2.591h2.206l2.857 4.267h3.429l-3.258-4.762a4.141 4.141 0 002.86-4.13z" data-name="Path 669" transform="translate(0 -56.529)" fill="#fff"/></g></svg>