<?xml version="1.0" encoding="utf-8"?>
<!-- Generator: Adobe Illustrator 24.2.0, SVG Export Plug-In . SVG Version: 6.00 Build 0)  -->
<svg version="1.1" id="Слой_1" xmlns="http://www.w3.org/2000/svg" xmlns:xlink="http://www.w3.org/1999/xlink" x="0px" y="0px"
	 viewBox="0 0 1924.7 1042.2" style="enable-background:new 0 0 1924.7 1042.2;" xml:space="preserve">
<style type="text/css">
	.st0{fill:#7D33F6;}
</style>
<path class="st0" d="M758.2,435.7h-82c-0.2,0-0.3,0.1-0.3,0.3v302.6c0,0.2,0.1,0.3,0.3,0.3h82c0.2,0,0.3-0.1,0.3-0.3V436
	C758.6,435.9,758.4,435.7,758.2,435.7z"/>
<circle class="st0" cx="717.2" cy="353.1" r="49.8"/>
<path class="st0" d="M631.4,435.7h-72.3c-9.7,0-18.3,5.9-21.7,15c-22.9,60.4-46,130.7-69.1,191.9C445,581.3,422,511.1,399.1,450.7
	c-3.4-9-12.1-15-21.7-15H305c36.4,96.2,72.7,192.2,109.1,288.2c3.4,9,12.1,15,21.7,15h64.7c9.7,0,18.3-6,21.7-15
	C558.7,627.9,595,531.9,631.4,435.7z"/>
<path class="st0" d="M1618.3,303.3h-76.4c-1.7,0-3.1,1.4-3.1,3.1v408.4l5.2,21.8c0.3,1.4,1.6,2.4,3.1,2.4h71.3
	c1.7,0,3.1-1.4,3.1-3.1V306.4C1621.4,304.7,1620,303.3,1618.3,303.3z"/>
<path class="st0" d="M1446.5,435.7c-78.6,0-142.4,67.9-142.4,151.6c0,83.7,63.7,151.6,142.4,151.6c78.6,0,142.4-67.9,142.4-151.6
	C1588.8,503.6,1525.1,435.7,1446.5,435.7z M1455.8,669.2c-45.2,0-81.9-36.7-81.9-81.9c0-45.2,36.7-81.9,81.9-81.9
	c45.2,0,81.9,36.7,81.9,81.9C1537.6,632.5,1501,669.2,1455.8,669.2z"/>
<path class="st0" d="M1245.6,435.7h-82c-0.2,0-0.3,0.1-0.3,0.3v302.6c0,0.2,0.1,0.3,0.3,0.3h82c0.2,0,0.3-0.1,0.3-0.3V436
	C1246,435.8,1245.8,435.7,1245.6,435.7z"/>
<circle class="st0" cx="1204.6" cy="353.1" r="49.8"/>
<path class="st0" d="M1118.8,435.7h-72.3c-9.7,0-18.3,5.9-21.7,15c-22.9,60.4-46,130.7-69.1,191.9c-23.2-61.2-46.3-131.5-69.1-191.9
	c-3.4-9-12.1-15-21.7-15h-72.3c36.4,96.2,72.7,192.2,109.1,288.2c3.4,9,12.1,15,21.7,15H988c9.7,0,18.3-6,21.7-15
	C1046.1,627.9,1082.4,531.9,1118.8,435.7z"/>
</svg>
