<?xml version="1.0" encoding="UTF-8" standalone="no"?>
<!DOCTYPE svg PUBLIC "-//W3C//DTD SVG 1.1//EN" "http://www.w3.org/Graphics/SVG/1.1/DTD/svg11.dtd">
<svg width="100%" height="100%" viewBox="0 0 710 710" version="1.1" xmlns="http://www.w3.org/2000/svg" xmlns:xlink="http://www.w3.org/1999/xlink" xml:space="preserve" xmlns:serif="http://www.serif.com/" style="fill-rule:evenodd;clip-rule:evenodd;stroke-linejoin:round;stroke-miterlimit:2;">
    <g transform="matrix(1,0,0,1,-1059.34,-493.666)">
        <g transform="matrix(1,0,0,1,-263.212,-1016.36)">
            <rect x="1322.55" y="1510.03" width="709.393" height="709.393" style="fill:rgb(0,216,194);"/>
            <g transform="matrix(333.333,0,0,333.333,1432.72,1838.23)">
                <path d="M0.118,-0.11L0.232,-0.11L0.232,-0.59L0.136,-0.59L0.136,-0.469L0.026,-0.469L0.026,-0.7L0.574,-0.7L0.574,-0.469L0.464,-0.469L0.464,-0.59L0.369,-0.59L0.369,-0.11L0.482,-0.11L0.482,-0L0.118,-0L0.118,-0.11Z" style="fill:white;fill-rule:nonzero;"/>
            </g>
            <g transform="matrix(333.333,0,0,333.333,1724.9,1842.13)">
                <path d="M0.036,-0.35C0.036,-0.407 0.041,-0.458 0.052,-0.503C0.063,-0.548 0.079,-0.587 0.101,-0.618C0.123,-0.649 0.151,-0.672 0.184,-0.689C0.217,-0.706 0.255,-0.714 0.3,-0.714C0.348,-0.714 0.389,-0.705 0.422,-0.687C0.455,-0.669 0.483,-0.644 0.504,-0.612C0.525,-0.58 0.54,-0.542 0.55,-0.497C0.559,-0.452 0.564,-0.403 0.564,-0.35C0.564,-0.236 0.542,-0.147 0.499,-0.083C0.455,-0.018 0.389,0.014 0.3,0.014C0.252,0.014 0.211,0.005 0.178,-0.013C0.144,-0.031 0.117,-0.056 0.096,-0.088C0.075,-0.12 0.059,-0.158 0.05,-0.203C0.041,-0.248 0.036,-0.297 0.036,-0.35ZM0.18,-0.35C0.18,-0.316 0.182,-0.284 0.185,-0.255C0.188,-0.226 0.193,-0.2 0.202,-0.179C0.21,-0.157 0.222,-0.14 0.238,-0.127C0.253,-0.114 0.274,-0.108 0.3,-0.108C0.323,-0.108 0.343,-0.113 0.358,-0.123C0.373,-0.132 0.386,-0.147 0.395,-0.167C0.404,-0.187 0.411,-0.212 0.415,-0.243C0.418,-0.273 0.42,-0.309 0.42,-0.35C0.42,-0.383 0.419,-0.414 0.417,-0.443C0.414,-0.472 0.409,-0.498 0.401,-0.52C0.392,-0.542 0.38,-0.56 0.364,-0.573C0.348,-0.586 0.327,-0.592 0.3,-0.592C0.253,-0.592 0.222,-0.572 0.205,-0.531C0.188,-0.49 0.18,-0.43 0.18,-0.35Z" style="fill:white;fill-rule:nonzero;"/>
            </g>
            <g transform="matrix(333.333,0,0,333.333,1439.32,2117.77)">
                <path d="M0.084,-0.7L0.528,-0.7L0.528,-0.578L0.221,-0.578L0.221,-0.405L0.506,-0.405L0.506,-0.283L0.221,-0.283L0.221,-0L0.084,-0L0.084,-0.7Z" style="fill:white;fill-rule:nonzero;"/>
            </g>
            <g transform="matrix(333.333,0,0,333.333,1718.6,2122.52)">
                <path d="M0.42,-0.7L0.55,-0.7L0.55,-0.252C0.55,-0.207 0.544,-0.167 0.532,-0.135C0.52,-0.101 0.503,-0.074 0.482,-0.053C0.46,-0.031 0.434,-0.015 0.404,-0.004C0.374,0.007 0.341,0.012 0.305,0.012C0.218,0.012 0.154,-0.009 0.113,-0.051C0.071,-0.093 0.05,-0.154 0.05,-0.235L0.05,-0.7L0.187,-0.7L0.187,-0.262C0.187,-0.209 0.197,-0.17 0.216,-0.146C0.235,-0.122 0.266,-0.11 0.307,-0.11C0.347,-0.11 0.376,-0.123 0.394,-0.149C0.411,-0.174 0.42,-0.212 0.42,-0.262L0.42,-0.7Z" style="fill:white;fill-rule:nonzero;"/>
            </g>
        </g>
    </g>
</svg>
